<?xml version="1.0" standalone="no"?>
<!DOCTYPE svg PUBLIC "-//W3C//DTD SVG 20010904//EN"
 "http://www.w3.org/TR/2001/REC-SVG-20010904/DTD/svg10.dtd">
<svg version="1.0" xmlns="http://www.w3.org/2000/svg"
 width="3264.000000pt" height="3264.000000pt" viewBox="0 0 3264.000000 3264.000000"
 preserveAspectRatio="xMidYMid meet">

<g transform="translate(0.000000,3264.000000) scale(0.100000,-0.100000)"
fill="#35BB85" stroke="none">
<path d="M10117 24392 c-3425 -3425 -6227 -6234 -6227 -6242 0 -8 429 -444
952 -967 l953 -953 -955 -955 -955 -955 5280 -5280 5280 -5280 1435 1435 1435
1435 -3840 3840 -3840 3840 475 475 c261 261 482 475 490 475 8 0 1740 -1725
3847 -3832 l3833 -3833 477 478 478 477 -4315 4315 c-2373 2373 -4319 4315
-4325 4315 -16 0 -2865 -2854 -2865 -2870 0 -8 1724 -1739 3830 -3845 2107
-2106 3830 -3835 3830 -3840 0 -16 -934 -945 -950 -945 -8 0 -1957 1942 -4330
4315 l-4315 4315 960 960 960 960 -960 960 -960 960 5282 5282 5283 5283 475
-475 c261 -261 475 -479 475 -485 0 -5 -2155 -2166 -4790 -4800 -2634 -2634
-4790 -4795 -4790 -4800 0 -6 214 -224 475 -485 l475 -475 5275 5275 c2901
2901 5275 5280 5275 5285 0 16 -2854 2865 -2870 2865 -8 0 -2817 -2802 -6243
-6228z"/>
<path d="M19717 26312 c-257 -257 -467 -472 -467 -477 0 -6 214 -224 475 -485
l475 -475 475 475 c261 261 475 479 475 485 0 16 -934 945 -950 945 -8 0 -225
-210 -483 -468z"/>
<path d="M14917 21512 c-1841 -1841 -3347 -3352 -3347 -3357 0 -6 2373 -2383
5273 -5283 l5272 -5272 1438 1438 1437 1437 -475 475 -475 475 -953 -953
c-523 -523 -959 -952 -967 -952 -20 0 -950 930 -950 950 0 8 429 444 952 967
l953 953 -478 477 -477 478 -953 -953 c-523 -523 -959 -952 -967 -952 -20 0
-950 930 -950 950 0 8 429 444 952 967 l953 953 -478 477 -477 478 -953 -953
c-523 -523 -959 -952 -967 -952 -20 0 -1910 1890 -1910 1910 0 20 930 950 950
950 8 0 228 -213 487 -472 l473 -473 1438 1438 1437 1437 -1435 1435 c-789
789 -1439 1435 -1445 1435 -13 0 -2865 -2853 -2865 -2865 0 -6 212 -222 470
-480 259 -258 470 -474 470 -480 0 -13 -942 -955 -955 -955 -16 0 -1905 1894
-1905 1910 0 8 1078 1093 2395 2410 l2395 2395 1920 -1920 1920 -1920 960 960
960 960 475 -475 c261 -261 475 -482 475 -490 0 -8 -861 -876 -1912 -1927
l-1913 -1913 2395 -2395 2395 -2395 1437 1437 1438 1438 -1435 1435 -1435
1435 -477 -478 -478 -477 953 -953 c523 -523 952 -959 952 -967 0 -20 -930
-950 -950 -950 -20 0 -2870 2850 -2870 2870 0 20 2850 2870 2870 2870 8 0 874
-860 1925 -1910 l1910 -1910 480 480 480 480 -3350 3350 c-1843 1843 -3355
3350 -3360 3350 -6 0 -438 -427 -960 -950 -522 -522 -957 -950 -965 -950 -8 0
-875 860 -1925 1910 -1050 1051 -1914 1910 -1920 1910 -6 0 -1516 -1506 -3358
-3348z m3845 -2879 c258 -258 468 -475 468 -483 0 -20 -930 -950 -950 -950
-20 0 -950 930 -950 950 0 20 930 950 950 950 8 0 225 -210 482 -467z"/>
<path d="M21638 24392 c-258 -258 -468 -472 -468 -478 0 -5 214 -223 475 -484
l475 -475 475 475 c261 261 475 479 475 485 0 16 -934 945 -950 945 -8 0 -225
-211 -482 -468z"/>
<path d="M2435 16710 l-470 -470 480 -480 480 -480 475 475 475 475 -475 475
c-261 261 -479 475 -485 475 -6 0 -222 -212 -480 -470z"/>
<path d="M17802 5187 l-2392 -2392 475 -475 475 -475 2395 2395 2395 2395
-472 472 c-260 260 -475 473 -478 473 -3 0 -1082 -1077 -2398 -2393z"/>
</g>
</svg>
